<svg width="66" height="58" xmlns="http://www.w3.org/2000/svg">
 <defs>
  <radialGradient gradientTransform="matrix(15.599200248718262,0,0,15.867799758911133,50.25799560546875,10.53240966796875)" gradientUnits="userSpaceOnUse" r="1" cy="0" cx="0" id="svg_15">
   <stop stop-opacity="0.6" stop-color="#FFEAFF"/>
   <stop stop-color="#A087C9" offset="0.6807"/>
   <stop stop-color="#10002F" offset="1"/>
  </radialGradient>
  <radialGradient gradientTransform="matrix(38.16569900512695,0,0,38.822898864746094,41.57940673828125,17.299652099609375)" gradientUnits="userSpaceOnUse" r="1" cy="0" cx="0" id="svg_14">
   <stop stop-opacity="0.6" stop-color="#FFEAFF"/>
   <stop stop-color="#A087C9" offset="0.6807"/>
   <stop stop-color="#10002F" offset="1"/>
  </radialGradient>
  <linearGradient gradientTransform="matrix(1,0,0,1,8,4.00006103515625)" gradientUnits="userSpaceOnUse" y2="7.41965" x2="23.9838" y1="46.547" x1="17.5324" id="svg_13">
   <stop stop-color="#81FFFF"/>
   <stop stop-opacity="0" stop-color="white" offset="0.6202"/>
  </linearGradient>
  <linearGradient gradientTransform="matrix(1,0,0,1,8,4.00006103515625)" gradientUnits="userSpaceOnUse" y2="28.283" x2="18.0272" y1="13.5042" x1="34.4118" id="svg_12">
   <stop stop-color="white" offset="0.2888"/>
   <stop stop-opacity="0" stop-color="white" offset="0.7796"/>
  </linearGradient>
  <linearGradient gradientTransform="matrix(1,0,0,1,8,4.00006103515625)" gradientUnits="userSpaceOnUse" y2="36.2197" x2="39.186" y1="36.2197" x1="2.10982" id="svg_11">
   <stop stop-color="#0002E9"/>
   <stop stop-color="#FF00C7" offset="0.9952"/>
  </linearGradient>
  <linearGradient gradientTransform="matrix(1,0,0,1,8,4.00006103515625)" gradientUnits="userSpaceOnUse" y2="47.5094" x2="20.436" y1="28.4589" x1="40.9411" id="svg_10">
   <stop stop-color="white" offset="0.2888"/>
   <stop stop-opacity="0" stop-color="white" offset="0.7796"/>
  </linearGradient>
  <linearGradient gradientTransform="matrix(1,0,0,1,8,4.00006103515625)" gradientUnits="userSpaceOnUse" y2="36.2197" x2="21.9454" y1="36.2197" x1="2.10982" id="svg_9">
   <stop stop-color="#000292"/>
   <stop stop-color="#7D00C7" offset="0.9952"/>
  </linearGradient>
  <linearGradient gradientTransform="matrix(1,0,0,1,8,4.00006103515625)" gradientUnits="userSpaceOnUse" y2="28.5484" x2="39.1611" y1="28.5484" x1="2.13471" id="svg_8">
   <stop stop-color="#000292"/>
   <stop stop-color="#BE00C7" offset="0.9952"/>
  </linearGradient>
  <linearGradient gradientTransform="matrix(1,0,0,1,8,4.00006103515625)" gradientUnits="userSpaceOnUse" y2="12.7051" x2="35.826" y1="8.34786" x1="38.5535" id="svg_7">
   <stop stop-color="white" offset="0.2888"/>
   <stop stop-opacity="0" stop-color="white" offset="0.7796"/>
  </linearGradient>
  <linearGradient gradientTransform="matrix(1,0,0,1,8,4.00006103515625)" gradientUnits="userSpaceOnUse" y2="40.8245" x2="19.8603" y1="40.8245" x1="18.3837" id="svg_6">
   <stop stop-color="white" offset="0.2888"/>
   <stop stop-opacity="0" stop-color="white" offset="0.7796"/>
  </linearGradient>
  <linearGradient gradientTransform="matrix(1,0,0,1,8,4.00006103515625)" gradientUnits="userSpaceOnUse" y2="40.3202" x2="24.9525" y1="40.3202" x1="23.4758" id="svg_5">
   <stop stop-color="white" offset="0.2888"/>
   <stop stop-opacity="0" stop-color="white" offset="0.7796"/>
  </linearGradient>
  <linearGradient gradientTransform="matrix(1,0,0,1,8,4.00006103515625)" gradientUnits="userSpaceOnUse" y2="42.8616" x2="22.3245" y1="42.8616" x1="21.2159" id="svg_4">
   <stop stop-color="white" offset="0.2888"/>
   <stop stop-opacity="0" stop-color="white" offset="0.7796"/>
  </linearGradient>
  <linearGradient gradientTransform="matrix(1,0,0,1,8,4.00006103515625)" gradientUnits="userSpaceOnUse" y2="42.3275" x2="26.8117" y1="42.3275" x1="25.7031" id="svg_3">
   <stop stop-color="white" offset="0.2888"/>
   <stop stop-opacity="0" stop-color="white" offset="0.7796"/>
  </linearGradient>
  <linearGradient gradientTransform="matrix(1,0,0,1,8,4.00006103515625)" gradientUnits="userSpaceOnUse" y2="39.8402" x2="16.0256" y1="39.8402" x1="13.6141" id="svg_2">
   <stop stop-color="white" offset="0.2888"/>
   <stop stop-opacity="0" stop-color="white" offset="0.7796"/>
  </linearGradient>
  <linearGradient gradientTransform="matrix(1,0,0,1,8,4.00006103515625)" gradientUnits="userSpaceOnUse" y2="35.8273" x2="30.348" y1="35.8273" x1="27.9364" id="svg_1">
   <stop stop-color="white" offset="0.2888"/>
   <stop stop-opacity="0" stop-color="white" offset="0.7796"/>
  </linearGradient>
 </defs>
 <g>
  <title>Layer 1</title>
  <path fill="#5E12A0" d="m51.8718,12.48527c-0.4886,-1.88166 -2.0592,-3.76332 -4.8863,-5.85799c-2.2686,-1.66864 -4.6768,-2.62722 -6.5964,-2.62722c-0.384,0 -0.733,0.0355 -1.082,0.10651c-0.8726,0.17751 -1.6404,0.81657 -2.129,1.77515c-0.5934,1.13609 -0.733,2.66272 -0.349,3.5858c0.1396,0.28402 0.3141,0.63905 0.5235,0.95857c-1.8498,1.1361 -2.8969,1.45563 -3.0365,1.49113c4.8165,1.63313 8.8302,5.04144 11.3432,9.47924l0.0349,-0.426c0.1047,-1.1716 0.4537,-2.5207 0.9423,-3.9053c0.4886,0.142 0.9773,0.213 1.4659,0.213c1.2914,0 2.4082,-0.5325 3.1063,-1.4911c0.698,-0.9586 0.9772,-2.2367 0.6631,-3.30179z"/>
  <path fill="url(#svg_15)" d="m46.846,16.03546c3.1761,0.8875 4.4674,-1.5977 4.0486,-3.26632c-0.4537,-1.66864 -1.9196,-3.37278 -4.5023,-5.28994c-2.5828,-1.91716 -5.2004,-2.69823 -6.8757,-2.3432c-1.6753,0.35503 -2.164,2.94675 -1.7451,3.94083c0.1745,0.39053 0.5584,0.95858 1.0819,1.59763c-0.6631,0.46154 -1.2914,0.81657 -1.8149,1.1361c3.211,1.45562 6.0032,3.7278 8.0973,6.568c0.2443,-0.9585 0.5933,-1.8106 0.9074,-2.5562c0.2443,0.0355 0.5236,0.1065 0.8028,0.2131z"/>
  <path fill="url(#svg_14)" d="m28.662,50.82806c10.7752,0 19.5102,-8.8854 19.5102,-19.8461c0,-10.9607 -8.735,-19.84616 -19.5102,-19.84616c-10.77524,0 -19.51027,8.88546 -19.51027,19.84616c0,10.9607 8.73503,19.8461 19.51027,19.8461z"/>
  <path fill="#A98698" d="m49.2891,11.13593c-2.6525,-2.84024 -4.8862,-3.5858 -7.5737,-4.18935c-2.0941,-0.49704 -1.5357,-1.70414 1.0122,-1.45562c-1.2216,-0.42604 -2.3734,-0.53255 -3.211,-0.35503c-1.6753,0.35503 -2.164,2.94674 -1.7451,3.94083c0.1745,0.39053 0.5584,0.95858 1.0819,1.59763c-0.9423,0.63905 -1.7451,1.10059 -2.4082,1.45562c0.3141,0.14201 0.698,0.31953 1.1518,0.56805c1.1866,0.63905 2.478,1.7041 2.478,1.7041c-1.9545,-1.7041 -1.5357,-2.48517 1.1518,-4.40233c0.8376,-0.60355 2.3733,-0.53254 3.8043,0.21302c1.431,0.74556 3.1063,2.62722 3.1063,2.62722l-1.6055,3.12429c0.1047,0.0355 0.2094,0.071 0.3141,0.1065c1.0122,0.284 1.8149,0.213 2.4431,-0.0355c0.733,-0.4616 2.6526,-2.0237 0,-4.89943z" opacity="0.6"/>
  <path fill="#5E12A0" d="m41.6805,8.65091c0.6981,0.28403 1.6055,0.78107 2.7224,1.52663c1.3263,0.88758 2.478,1.88166 3.211,2.66272c-1.2216,1.6331 -2.0244,3.8698 -2.513,5.432c0.2443,0.355 0.5235,0.71 0.7679,1.065c0.2443,-0.8875 0.6631,-2.2011 1.2215,-3.5148c0.1396,0.0356 0.3141,0.0356 0.4887,0.0356c0.4188,0 0.9074,-0.0711 1.2913,-0.3906c0.2792,-0.213 0.5934,-0.6035 0.5585,-1.3136c0,-0.67454 -0.5236,-1.52661 -1.6055,-2.5562c-0.7679,-0.74556 -1.8149,-1.56213 -2.862,-2.30769c-3.0016,-2.02367 -5.0957,-2.59172 -6.038,-1.63314c-0.6283,0.63905 -0.5585,1.42012 -0.3491,1.98817c-1.1168,0.74556 -2.0592,1.2781 -2.6874,1.63313c0.4188,0.14201 0.8027,0.31953 1.2216,0.49705c1.1168,-0.60355 2.7223,-1.63314 4.5721,-3.12427zm6.5965,5.07693c0.1047,0.17751 0.1396,0.35502 0.1396,0.46152c0,0.3195 -0.1047,0.4261 -0.1745,0.4971c-0.1396,0.1065 -0.4188,0.1775 -0.6631,0.1775c0.2094,-0.4261 0.4537,-0.7811 0.698,-1.13612zm-8.6208,-5.28994c0.1047,-0.10651 0.3839,-0.17752 0.8377,-0.10651c-0.3491,0.28402 -0.6981,0.53254 -1.0471,0.78106c-0.0349,-0.24852 0,-0.49704 0.2094,-0.67455z"/>
  <path fill="#5E12A0" d="m28.662,9.96442c-11.41297,0 -20.662,9.40824 -20.662,21.01774c0,11.6095 9.24903,21.0178 20.662,21.0178c11.413,0 20.662,-9.4083 20.662,-21.0178c0,-11.6095 -9.2839,-21.01774 -20.662,-21.01774zm0,40.86394c-10.78473,0 -19.51023,-8.8758 -19.51023,-19.8462c0,-10.9704 8.7255,-19.84615 19.51023,-19.84615c10.7847,0 19.5102,8.87575 19.5102,19.84615c0,10.9704 -8.7604,19.8462 -19.5102,19.8462z"/>
  <path fill="url(#svg_13)" d="m28.662,50.82856c10.7752,0 19.5102,-8.8854 19.5102,-19.8461c0,-10.9607 -8.735,-19.84617 -19.5102,-19.84617c-10.77524,0 -19.51027,8.88547 -19.51027,19.84617c0,10.9607 8.73503,19.8461 19.51027,19.8461z" opacity="0.6"/>
  <path fill="#A98698" d="m28.5224,48.41436c-10.64516,-1.7396 -17.86988,-11.9289 -16.12478,-22.7573c0.76785,-4.7929 3.14118,-8.8758 6.49178,-11.82253c-4.88629,2.87573 -8.51609,7.88163 -9.49335,13.98813c-1.7102,10.8284 5.51452,21.0178 16.12475,22.7574c5.9333,0.9941 11.6573,-0.8875 15.8804,-4.5799c-3.7345,2.2012 -8.2718,3.1598 -12.8788,2.4142z" opacity="0.6"/>
  <path fill="url(#svg_12)" d="m31.7683,11.4203c-4.9212,-0.81657 -9.7027,0.31953 -13.6118,2.84026c-0.0698,0.071 -0.1396,0.142 -0.1396,0.142c1.5008,-0.92309 3.6996,-1.73965 3.6996,-1.73965c-5.65408,3.33725 -7.39918,7.13605 -7.39918,7.13605c2.19883,-4.3313 8.65568,-7.38458 13.71648,-7.59759c5.0608,-0.21302 8.3765,1.31361 12.4251,4.61539c4.0487,3.3373 6.4918,10.1538 6.2475,15.5503c-0.2094,5.3964 -3.0016,9.7633 -3.0016,9.7633c1.9196,-2.5207 3.0714,-4.3669 3.8043,-6.2485c0.1396,-0.5681 0.2793,-1.1361 0.3491,-1.7397c1.7451,-10.7929 -5.4448,-20.98221 -16.0899,-22.72186z" opacity="0.6"/>
  <path fill="url(#svg_11)" d="m47.195,30.80476c0,10.4024 -8.3067,18.8521 -18.533,18.8521c-10.2263,0 -18.56788,-8.4497 -18.56788,-18.8521l37.10088,0z"/>
  <g opacity="0.6">
   <path fill="url(#svg_10)" d="m45.7291,30.80476c0,10.1538 -7.8878,18.4615 -17.8,18.8521c0.2443,0 0.4886,0 0.7329,0c10.2263,0 18.533,-8.4497 18.533,-18.8521l-1.4659,0z" opacity="0.6"/>
  </g>
  <g opacity="0.7">
   <path fill="url(#svg_9)" d="m12.71177,30.80476l-2.61765,0c0,10.4024 8.30668,18.8521 18.53298,18.8521c0.4537,0 0.8725,0 1.2914,-0.0355c-9.5981,-0.7101 -17.20673,-8.8758 -17.20673,-18.8166z" opacity="0.7"/>
  </g>
  <path fill="url(#svg_8)" d="m47.1601,30.98226c0,-2.1656 -3.6997,-3.4082 -8.6208,-3.8343c-3.56,-0.284 -7.155,0.071 -11.2734,1.3491c-3.56,1.0651 -6.771,0.8876 -9.1094,0.6036c-5.20042,-0.6036 -8.06238,-0.6746 -8.06238,1.8816c0,3.6923 7.39922,8.3077 18.49808,6.7101c5.6192,-0.8166 8.5161,-2.4852 11.8318,-3.6213c3.5949,-1.2071 6.7361,-1.1716 6.7361,-3.0888z"/>
  <path fill="white" d="m34.735,22.03566c1.7348,0 3.1412,-1.4306 3.1412,-3.1953c0,-1.7647 -1.4064,-3.1953 -3.1412,-3.1953c-1.7348,0 -3.1412,1.4306 -3.1412,3.1953c0,1.7647 1.4064,3.1953 3.1412,3.1953z"/>
  <path fill="white" d="m39.8656,24.41406c0.7325,0 1.3263,-0.604 1.3263,-1.3491c0,-0.7451 -0.5938,-1.3491 -1.3263,-1.3491c-0.7325,0 -1.3263,0.604 -1.3263,1.3491c0,0.7451 0.5938,1.3491 1.3263,1.3491z"/>
  <g opacity="0.6">
   <path fill="url(#svg_7)" d="m44.6122,16.28416c-0.0349,0 -0.0698,0 -0.0698,0c-0.2095,-0.0355 -0.3491,-0.2485 -0.3142,-0.4971c0.3142,-1.6331 1.6404,-3.19524 1.7102,-3.26624c0.1397,-0.17752 0.4189,-0.17752 0.5585,-0.0355c0.1745,0.14201 0.1745,0.42603 0.0349,0.56804c-0.0349,0.0355 -1.2565,1.4911 -1.5357,2.9112c-0.0349,0.2131 -0.2094,0.3196 -0.3839,0.3196z" opacity="0.6"/>
  </g>
  <path fill="white" d="m27.3729,45.78706c0.5397,0 0.9772,-0.4451 0.9772,-0.9941c0,-0.549 -0.4375,-0.9941 -0.9772,-0.9941c-0.5397,0 -0.9773,0.4451 -0.9773,0.9941c0,0.549 0.4376,0.9941 0.9773,0.9941z" opacity="0.2"/>
  <g opacity="0.4">
   <path fill="url(#svg_6)" d="m26.8122,45.43316c-0.3839,-0.3906 -0.3839,-1.0296 0,-1.4201c0.0698,-0.071 0.1396,-0.1065 0.2094,-0.1776c-0.1396,0.0356 -0.2443,0.1066 -0.349,0.2131c-0.3839,0.3905 -0.3839,1.0295 0,1.4201c0.3141,0.3195 0.8027,0.3905 1.1867,0.1775c-0.3491,0.142 -0.7679,0.071 -1.0471,-0.213z" opacity="0.6"/>
  </g>
  <path fill="white" d="m27.7197,44.50906c0.1156,0 0.2094,-0.0953 0.2094,-0.213c0,-0.1176 -0.0938,-0.213 -0.2094,-0.213c-0.1157,0 -0.2094,0.0954 -0.2094,0.213c0,0.1177 0.0937,0.213 0.2094,0.213z" opacity="0.3"/>
  <path fill="white" d="m32.4686,45.28996c0.5397,0 0.9772,-0.445 0.9772,-0.9941c0,-0.549 -0.4375,-0.994 -0.9772,-0.994c-0.5397,0 -0.9773,0.445 -0.9773,0.994c0,0.5491 0.4376,0.9941 0.9773,0.9941z" opacity="0.2"/>
  <g opacity="0.4">
   <path fill="url(#svg_5)" d="m31.9079,44.93556c-0.3839,-0.3905 -0.3839,-1.0296 0,-1.4201c0.0698,-0.071 0.1396,-0.1065 0.2094,-0.1775c-0.1396,0.0355 -0.2443,0.1065 -0.349,0.213c-0.3839,0.3905 -0.3839,1.0296 0,1.4201c0.3141,0.3196 0.8027,0.3906 1.1867,0.1775c-0.3491,0.1421 -0.7679,0.071 -1.0471,-0.213z" opacity="0.6"/>
  </g>
  <path fill="white" d="m32.8154,44.01206c0.1156,0 0.2094,-0.0954 0.2094,-0.213c0,-0.1177 -0.0938,-0.2131 -0.2094,-0.2131c-0.1157,0 -0.2094,0.0954 -0.2094,0.2131c0,0.1176 0.0937,0.213 0.2094,0.213z" opacity="0.3"/>
  <path fill="white" d="m29.9534,47.59766c0.4048,0 0.7329,-0.3338 0.7329,-0.7456c0,-0.4118 -0.3281,-0.7456 -0.7329,-0.7456c-0.4048,0 -0.7329,0.3338 -0.7329,0.7456c0,0.4118 0.3281,0.7456 0.7329,0.7456z" opacity="0.2"/>
  <g opacity="0.4">
   <path fill="url(#svg_4)" d="m29.5346,47.31476c-0.2792,-0.2841 -0.2792,-0.7811 0,-1.0651c0.0349,-0.0355 0.1047,-0.071 0.1396,-0.1065c-0.1047,0.0355 -0.1745,0.1065 -0.2443,0.1775c-0.2792,0.284 -0.2792,0.781 0,1.0651c0.2443,0.2485 0.5933,0.284 0.9074,0.1065c-0.2792,0.1065 -0.5933,0.0355 -0.8027,-0.1775z" opacity="0.6"/>
  </g>
  <path fill="white" d="m30.1977,46.60346c0.0771,0 0.1396,-0.0636 0.1396,-0.1421c0,-0.0784 -0.0625,-0.142 -0.1396,-0.142c-0.0771,0 -0.1396,0.0636 -0.1396,0.142c0,0.0785 0.0625,0.1421 0.1396,0.1421z" opacity="0.3"/>
  <path fill="white" d="m34.4557,47.06496c0.4048,0 0.733,-0.3338 0.733,-0.7456c0,-0.4118 -0.3282,-0.7456 -0.733,-0.7456c-0.4048,0 -0.7329,0.3338 -0.7329,0.7456c0,0.4118 0.3281,0.7456 0.7329,0.7456z" opacity="0.2"/>
  <g opacity="0.4">
   <path fill="url(#svg_3)" d="m34.0369,46.78196c-0.2792,-0.284 -0.2792,-0.781 0,-1.065c0.0349,-0.0355 0.1047,-0.071 0.1396,-0.1065c-0.1047,0.0355 -0.1745,0.1065 -0.2443,0.1775c-0.2792,0.284 -0.2792,0.781 0,1.0651c0.2443,0.2485 0.5933,0.284 0.9074,0.1065c-0.2792,0.1065 -0.5933,0.0355 -0.8027,-0.1776z" opacity="0.6"/>
  </g>
  <path fill="white" d="m34.7,46.07066c0.0771,0 0.1396,-0.0635 0.1396,-0.142c0,-0.0784 -0.0625,-0.142 -0.1396,-0.142c-0.0771,0 -0.1396,0.0636 -0.1396,0.142c0,0.0785 0.0625,0.142 0.1396,0.142z" opacity="0.3"/>
  <path fill="white" d="m23.2173,45.43186c0.8866,0 1.6054,-0.7312 1.6054,-1.6331c0,-0.902 -0.7188,-1.6332 -1.6054,-1.6332c-0.8867,0 -1.6055,0.7312 -1.6055,1.6332c0,0.9019 0.7188,1.6331 1.6055,1.6331z" opacity="0.2"/>
  <g opacity="0.4">
   <path fill="url(#svg_2)" d="m22.3107,44.82826c-0.6282,-0.6391 -0.6282,-1.6687 0,-2.3077c0.1047,-0.1065 0.2094,-0.1775 0.349,-0.2485c-0.2094,0.071 -0.3839,0.213 -0.5584,0.355c-0.6282,0.6391 -0.6282,1.6686 0,2.3077c0.5235,0.5325 1.3263,0.639 1.9545,0.2485c-0.5933,0.2485 -1.2914,0.142 -1.7451,-0.355z" opacity="0.6"/>
  </g>
  <path fill="white" d="m23.7758,43.30196c0.1927,0 0.349,-0.159 0.349,-0.3551c0,-0.1961 -0.1563,-0.355 -0.349,-0.355c-0.1928,0 -0.349,0.1589 -0.349,0.355c0,0.1961 0.1562,0.3551 0.349,0.3551z" opacity="0.3"/>
  <path fill="white" d="m37.5629,41.42016c0.8867,0 1.6055,-0.7312 1.6055,-1.6332c0,-0.9019 -0.7188,-1.6331 -1.6055,-1.6331c-0.8866,0 -1.6054,0.7312 -1.6054,1.6331c0,0.902 0.7188,1.6332 1.6054,1.6332z" opacity="0.2"/>
  <g opacity="0.4">
   <path fill="url(#svg_1)" d="m36.6197,40.81656c-0.6283,-0.6391 -0.6283,-1.6687 0,-2.3077c0.1047,-0.1065 0.2094,-0.1775 0.349,-0.2485c-0.2094,0.071 -0.3839,0.213 -0.5584,0.355c-0.6283,0.639 -0.6283,1.6686 0,2.3077c0.5235,0.5325 1.3262,0.639 1.9545,0.2485c-0.5934,0.2485 -1.2565,0.142 -1.7451,-0.355z" opacity="0.6"/>
  </g>
  <path fill="white" d="m38.1204,39.29016c0.1928,0 0.3491,-0.1589 0.3491,-0.355c0,-0.1961 -0.1563,-0.355 -0.3491,-0.355c-0.1927,0 -0.349,0.1589 -0.349,0.355c0,0.1961 0.1563,0.355 0.349,0.355z" opacity="0.3"/>

  <path stroke="null" stroke-width="22" id="svg_16" d="m45.17246,51.27629c-0.30272,0.02679 -0.61223,0.04531 -0.93054,0.04531l0,0c-0.28473,0 -0.56132,-0.01466 -0.83112,-0.03639l0,0l-2.33618,2.82337l-0.57454,-0.15315c-0.67432,-0.17805 -1.32931,-0.40143 -1.95916,-0.66947l0,0l-0.54603,-0.2323l0.14049,-3.54644c-0.4965,-0.32677 -0.95972,-0.69054 -1.3887,-1.08939l0,0l-3.69364,0.74606l-0.33733,-0.46592c-0.3957,-0.54691 -0.73303,-1.12003 -1.032,-1.69948l0,0l-0.25962,-0.50611l2.50791,-2.6102c-0.1568,-0.55269 -0.26063,-1.12324 -0.31425,-1.7046l0,0l-3.3234,-1.65227l0.0604,-0.55972c0.07128,-0.66948 0.20905,-1.31021 0.37364,-1.92606l0,0l0.14695,-0.54632l3.70688,-0.48247c0.26436,-0.5246 0.57557,-1.02174 0.92613,-1.48892l0,0l-1.41447,-3.27456l0.42693,-0.39313c0.50191,-0.4595 1.03913,-0.87623 1.59975,-1.25725l0,0l0.48564,-0.32929l3.19987,1.88967c0.53926,-0.23357 1.10328,-0.42567 1.68766,-0.5731l0,0l1.15995,-3.38433l0.59796,-0.04275c0.32206,-0.02233 0.66822,-0.04851 1.04457,-0.04851l0,0c0.37534,0 0.72046,0.02618 1.04254,0.04851l0,0l0.59795,0.04275l1.1725,3.41946c0.56199,0.1474 1.10668,0.33568 1.62862,0.56416l0,0l3.24467,-1.91653l0.48733,0.32932c0.56063,0.38038 1.09885,0.79838 1.59977,1.25597l0,0l0.4286,0.39313l-1.45791,3.37159c0.31765,0.43396 0.60406,0.89347 0.84876,1.37658l0,0l3.82261,0.49778l0.14864,0.54628c0.16697,0.61524 0.30408,1.25597 0.37363,1.92672l0,0l0.06042,0.55969l-3.43948,1.7097c-0.05157,0.53037 -0.1432,1.05242 -0.27997,1.56104l0,0l2.59139,2.69193l-0.26062,0.50798c-0.29796,0.58141 -0.6336,1.15642 -1.031,1.70143l0,0l-0.33733,0.46459l-3.78527,-0.76261c-0.40113,0.37715 -0.83551,0.72434 -1.29978,1.0377l0,0l0.14423,3.616l-0.54739,0.23295c-0.63055,0.26676 -1.2845,0.49077 -1.9588,0.66883l0,0l-0.5766,0.15316l-2.34127,-2.8304l0,0l0,0zm3.00405,0.90562c0.20193,-0.0632 0.40046,-0.1315 0.59693,-0.20426l0,0l-0.13506,-3.41496l0.42591,-0.25721c0.638,-0.38927 1.21899,-0.85645 1.73483,-1.38677l0,0l0.34343,-0.35355l3.58167,0.72113c0.10758,-0.16913 0.21175,-0.34207 0.3122,-0.51883l0,0l-2.44987,-2.54703l0.15203,-0.45505c0.21616,-0.65542 0.33902,-1.35809 0.37533,-2.09133l0,0l0.0224,-0.4774l3.25416,-1.61716c-0.03393,-0.19594 -0.07294,-0.39058 -0.11741,-0.58589l0,0l-3.62069,-0.47095l-0.19478,-0.44037c-0.29119,-0.65864 -0.67637,-1.27512 -1.13621,-1.84374l0,0l-0.30407,-0.37909l1.37714,-3.18521c-0.15951,-0.1315 -0.32308,-0.25911 -0.49106,-0.38292l0,0l-3.07396,1.81439l-0.45272,-0.22468c-0.67057,-0.33186 -1.39581,-0.58395 -2.16074,-0.74731l0,0l-0.49479,-0.10657l-1.11006,-3.23693c-0.10793,-0.00509 -0.21279,-0.00767 -0.31494,-0.00767l0,0c-0.10419,0 -0.20905,0.00258 -0.31766,0.00767l0,0l-1.10224,3.21588l-0.50193,0.10084c-0.77817,0.15697 -1.52035,0.4129 -2.21164,0.74922l0,0l-0.45171,0.2208l-3.02408,-1.78565c-0.16696,0.12381 -0.33089,0.25142 -0.48902,0.38292l0,0l1.34048,3.10162l-0.31491,0.3797c-0.49107,0.59288 -0.89933,1.24258 -1.20544,1.94012l0,0l-0.19377,0.44227l-3.50429,0.45566c-0.04445,0.19531 -0.08381,0.38995 -0.11673,0.58589l0,0l3.1415,1.56165l0.01934,0.48117c0.03291,0.77672 0.17104,1.52213 0.40859,2.21903l0,0l0.15545,0.4582l-2.37252,2.46791c0.09978,0.1774 0.20362,0.35034 0.31223,0.51946l0,0l3.48391,-0.7052l0.34684,0.35356c0.5345,0.55015 1.14501,1.02814 1.81764,1.42512l0,0l0.43405,0.2546l-0.1327,3.36264c0.19683,0.07276 0.39604,0.14106 0.59796,0.20426l0,0l2.2052,-2.66638l0.50361,0.05805c0.38009,0.04532 0.75,0.07468 1.11821,0.07468l0,0c0.39603,0 0.79546,-0.03253 1.20372,-0.08679l0,0l0.50804,-0.06699l2.22216,2.68743l0,0l0,0zm1.0052,-6.92441l0.48596,0.70198l-3.08075,1.88462l-1.09342,-1.58212l0,0c-0.39775,0.09125 -0.81585,0.1449 -1.2509,0.1449l0,0c-3.01051,0 -5.44987,-2.29432 -5.44987,-5.12216l0,0c0,-2.83037 2.43935,-5.12406 5.44987,-5.12406l0,0c3.00712,0 5.44713,2.29369 5.44713,5.12406l0,0c0,1.16213 -0.41537,2.23877 -1.11174,3.09843l0,0l0.60373,0.87434m-2.07251,0.26993l0.09604,-0.05741l-0.87827,-1.27063l0.50904,-0.47866c0.66551,-0.62734 1.07376,-1.48315 1.07376,-2.43599l0,0c-0.00374,-1.90499 -1.64422,-3.44754 -3.66785,-3.45135l0,0c-2.02839,0.00381 -3.66718,1.54443 -3.67057,3.45135l0,0c0.0034,1.90309 1.64388,3.4456 3.67057,3.44945l0,0c0.4527,0 0.88846,-0.08744 1.31028,-0.23933l0,0l0.67262,-0.24252l0.88438,1.2751l0,0z" fill="#000000"/>
 </g>
</svg>